<?xml version="1.0"?>
<svg xmlns="http://www.w3.org/2000/svg" xmlns:xlink="http://www.w3.org/1999/xlink" xmlns:svgjs="http://svgjs.com/svgjs" version="1.1" width="512" height="512" x="0" y="0" viewBox="0 0 473 473" style="enable-background:new 0 0 512 512" xml:space="preserve" class=""><g><path xmlns="http://www.w3.org/2000/svg" d="m236 154.742188c27.871094 0 50.542969-21.964844 50.542969-48.964844 0-26.996094-22.671875-48.964844-50.542969-48.964844s-50.542969 21.964844-50.542969 48.964844 22.671875 48.964844 50.542969 48.964844zm0-81.929688c19.046875 0 34.542969 14.789062 34.542969 32.964844 0 18.179687-15.5 32.964844-34.542969 32.964844s-34.542969-14.785157-34.542969-32.964844c0-18.175782 15.496094-32.964844 34.542969-32.964844zm0 0" fill="#4c7293" data-original="#000000" style="" class=""/><path xmlns="http://www.w3.org/2000/svg" d="m193.179688 344.785156c0 22.898438 19.207031 41.53125 42.820312 41.53125s42.820312-18.632812 42.820312-41.53125c0-22.898437-19.207031-41.53125-42.820312-41.53125s-42.820312 18.632813-42.820312 41.53125zm42.820312-25.53125c14.789062 0 26.820312 11.453125 26.820312 25.53125s-12.03125 25.53125-26.820312 25.53125-26.820312-11.453125-26.820312-25.53125 12.03125-25.53125 26.820312-25.53125zm0 0" fill="#4c7293" data-original="#000000" style="" class=""/><path xmlns="http://www.w3.org/2000/svg" d="m236 388.382812c-37.542969 0-68 29.546876-68 65.859376v10.257812c0 4.417969 3.492188 8.5 7.910156 8.5h120.179688c4.417968 0 7.910156-4.082031 7.910156-8.5v-10.257812c0-36.3125-30.457031-65.859376-68-65.859376zm52 68.617188h-104v-2.757812c0-27.492188 23.277344-49.859376 52-49.859376s52 22.367188 52 49.859376zm0 0" fill="#4c7293" data-original="#000000" style="" class=""/><path xmlns="http://www.w3.org/2000/svg" d="m361.089844 344.785156c0 22.898438 19.210937 41.53125 42.820312 41.53125 23.613282 0 42.820313-18.632812 42.820313-41.53125 0-22.898437-19.207031-41.53125-42.820313-41.53125-23.609375 0-42.820312 18.632813-42.820312 41.53125zm69.640625 0c0 14.078125-12.03125 25.53125-26.820313 25.53125-14.789062 0-26.820312-11.453125-26.820312-25.53125s12.03125-25.53125 26.820312-25.53125c14.789063 0 26.820313 11.453125 26.820313 25.53125zm0 0" fill="#4c7293" data-original="#000000" style="" class=""/><path xmlns="http://www.w3.org/2000/svg" d="m404 388.382812c-37.546875 0-68 29.546876-68 65.859376v10.257812c0 4.417969 3.398438 8.5 7.820312 8.5h120.179688c4.417969 0 8-4.082031 8-8.5v-10.257812c0-36.3125-30.453125-65.859376-68-65.859376zm52 68.617188h-104v-2.757812c0-27.492188 23.277344-49.859376 52-49.859376s52 22.367188 52 49.859376zm0 0" fill="#4c7293" data-original="#000000" style="" class=""/><path xmlns="http://www.w3.org/2000/svg" d="m25.269531 344.785156c0 22.898438 19.207031 41.53125 42.820313 41.53125 23.609375 0 42.820312-18.632812 42.820312-41.53125 0-22.898437-19.210937-41.53125-42.820312-41.53125-23.613282 0-42.820313 18.632813-42.820313 41.53125zm42.820313-25.53125c14.789062 0 26.820312 11.453125 26.820312 25.53125s-12.03125 25.53125-26.820312 25.53125c-14.789063 0-26.820313-11.453125-26.820313-25.53125s12.03125-25.53125 26.820313-25.53125zm0 0" fill="#4c7293" data-original="#000000" style="" class=""/><path xmlns="http://www.w3.org/2000/svg" d="m68 388.382812c-37.546875 0-68 29.546876-68 65.859376v10.257812c0 4.417969 3.582031 8.5 8 8.5h120.179688c4.417968 0 7.820312-4.082031 7.820312-8.5v-10.257812c0-36.3125-30.453125-65.859376-68-65.859376zm52 68.617188h-104v-2.757812c0-27.492188 23.277344-49.859376 52-49.859376s52 22.367188 52 49.859376zm0 0" fill="#4c7293" data-original="#000000" style="" class=""/><path xmlns="http://www.w3.org/2000/svg" d="m362.820312 324.785156c0-22.898437-19.207031-41.53125-42.820312-41.53125s-42.820312 18.632813-42.820312 41.53125c0 22.898438 19.207031 41.53125 42.820312 41.53125s42.820312-18.632812 42.820312-41.53125zm-42.820312 25.53125c-14.789062 0-26.820312-11.453125-26.820312-25.53125s12.03125-25.53125 26.820312-25.53125 26.820312 11.453125 26.820312 25.53125-12.03125 25.53125-26.820312 25.53125zm0 0" fill="#4c7293" data-original="#000000" style="" class=""/><path xmlns="http://www.w3.org/2000/svg" d="m194.820312 324.785156c0-22.898437-19.207031-41.53125-42.820312-41.53125s-42.820312 18.632813-42.820312 41.53125c0 22.898438 19.207031 41.53125 42.820312 41.53125s42.820312-18.632812 42.820312-41.53125zm-42.820312 25.53125c-14.789062 0-26.820312-11.453125-26.820312-25.53125s12.03125-25.53125 26.820312-25.53125 26.820312 11.453125 26.820312 25.53125-12.03125 25.53125-26.820312 25.53125zm0 0" fill="#4c7293" data-original="#000000" style="" class=""/><path xmlns="http://www.w3.org/2000/svg" d="m419 8c0-4.417969-3.582031-8-8-8h-351c-4.417969 0-8 3.582031-8 8v240c0 4.417969 3.582031 8 8 8h351c4.417969 0 8-3.582031 8-8zm-118 232h-130v-5.378906c0-34.566406 28.929688-62.6875 65-62.6875s65 28.121094 65 62.6875zm102 0h-86v-5.378906c0-43.390625-36.109375-78.6875-81-78.6875s-81 35.296875-81 78.6875v5.378906h-87v-224h335zm0 0" fill="#4c7293" data-original="#000000" style="" class=""/></g></svg>
